<svg enable-background="new 0 0 537 537" viewBox="0 0 537 537" xmlns="http://www.w3.org/2000/svg"><path d="m254 536.4c-86.7-3.8-167-64.5-191.5-147.1-19.1-63.9-8.8-125.3 21.9-183.6 22.4-42.5 54.7-77.2 88.4-110.6 29.4-29.2 60.2-57 87.4-88.5 4.4-5 8-10.7 15-2.3 34.2 40.8 75.1 75 111.6 113.7 33.9 36 63.9 74.5 81.4 121.5 39.3 105.6 6.2 219.8-101.6 275.3-34.8 17.7-66.8 24.4-112.6 21.6z" fill="#00aae8"/><path d="m785.8-569.3c-86.7-3.8-167-64.5-191.5-147.1-19.1-63.9-8.8-125.3 21.9-183.6 22.4-42.5 54.7-77.2 88.4-110.6 29.4-29.2 60.2-57 87.4-88.5 4.4-5 8-10.7 15-2.3 34.2 40.8 75.1 75 111.6 113.7 33.9 36 63.9 74.5 81.4 121.5 39.3 105.6 6.2 219.8-101.6 275.3-34.8 17.7-66.8 24.4-112.6 21.6z" fill="#303131"/><g fill="#fff"><path d="m800.3-742.5 85.5-50.5-85.5-142-85.5 141.9zm-.1 86.2 85.6-120.5-85.6 50.5-85.5-50.5z"/><path d="m260.7 364.9-41.4-41.3h-80.8l122.2 121.8z"/><path d="m275.9 446.1 122.1-122.5h-80.6l-41.5 41.6z"/><path d="m275.9 186.1v80.7l41.8 41.6h80.8z"/><path d="m260.6 186.1-122.1 122.3h80.7l41.4-41.5z"/></g></svg>