<svg width="31" height="36" viewBox="0 0 31 36" fill="none" xmlns="http://www.w3.org/2000/svg">
<g clip-path="url(#clip0_595_212)">
<path fill-rule="evenodd" clip-rule="evenodd" d="M7.48121 24.328C6.85016 24.328 6.25021 23.9589 5.9877 23.3443C5.09567 21.2561 4.64404 19.0375 4.64404 16.7503C4.64404 8.24432 11.0284 1.04787 19.4951 0.0119042C20.3856 -0.0951948 21.1935 0.532172 21.3031 1.4179C21.4127 2.30311 20.7801 3.10915 19.8911 3.21777C13.048 4.05578 7.88798 9.87314 7.88798 16.7503C7.88798 18.6009 8.25346 20.3942 8.9732 22.0799C9.32389 22.9006 8.93956 23.8498 8.11532 24.1985C7.90786 24.2863 7.69275 24.328 7.48121 24.328Z" fill="#2CCCBF"/>
<path fill-rule="evenodd" clip-rule="evenodd" d="M10.986 15.5029C10.8954 15.5029 10.8027 15.4917 10.7111 15.4676C10.1218 15.3147 9.76736 14.7079 9.91874 14.1129C11.3202 8.61114 16.2292 4.77002 21.8577 4.77002C24.7294 4.77002 27.5251 5.78913 29.73 7.64062C30.1979 8.03251 30.2622 8.73443 29.8733 9.20664C29.4855 9.67936 28.7909 9.74434 28.3231 9.35194C26.5125 7.83196 24.2165 6.99447 21.8577 6.99447C17.2342 6.99447 13.2021 10.1495 12.0513 14.667C11.9237 15.1699 11.4761 15.5029 10.986 15.5029Z" fill="#9EF2ED"/>
<path fill-rule="evenodd" clip-rule="evenodd" d="M21.0494 28.5921C19.7403 28.5031 18.4635 28.2094 17.2548 27.7173C16.6828 27.4843 16.404 26.822 16.6316 26.2377C16.8602 25.6539 17.508 25.3691 18.0801 25.6015C19.0719 26.0057 20.1206 26.2471 21.1975 26.3204C22.6845 26.4214 24.1386 26.2005 25.52 25.6628C26.0956 25.4397 26.7394 25.7345 26.9582 26.322C27.1771 26.9094 26.8885 27.5675 26.3134 27.7916C24.6296 28.4461 22.8592 28.7152 21.0494 28.5921Z" fill="#9EF2ED"/>
<mask id="mask0_595_212" style="mask-type:alpha" maskUnits="userSpaceOnUse" x="0" y="5" width="17" height="31">
<path d="M0.833496 5.43408H16.0243V35.7762H0.833496V5.43408Z" fill="white"/>
</mask>
<g mask="url(#mask0_595_212)">
<path fill-rule="evenodd" clip-rule="evenodd" d="M14.9195 35.7763C14.8128 35.7763 14.7041 35.7605 14.5969 35.7275C6.49352 33.2526 0.833496 25.3124 0.833496 16.52C0.833496 12.7553 1.90199 9.09787 3.92364 5.94319C4.25237 5.42877 4.93574 5.27918 5.44992 5.60991C5.96359 5.93963 6.11296 6.6245 5.78322 7.13892C3.99071 9.9359 3.04314 13.1801 3.04314 16.52C3.04314 24.3477 8.05942 31.4178 15.2417 33.6108C15.8254 33.7894 16.1542 34.4076 15.9758 34.9922C15.8305 35.469 15.3931 35.7763 14.9195 35.7763Z" fill="#9EF2ED"/>
</g>
<path fill-rule="evenodd" clip-rule="evenodd" d="M21.6826 32.9141C16.8592 32.9141 12.4545 31.0995 9.49961 27.8692C9.02795 27.3533 9.06625 26.556 9.58477 26.0867C10.1033 25.6184 10.906 25.656 11.3782 26.1718C13.9879 29.0241 18.0026 30.5602 22.3755 30.3763C23.0785 30.3433 23.667 30.8887 23.6962 31.5849C23.7255 32.2805 23.1812 32.869 22.4803 32.898C22.2137 32.9086 21.9467 32.9141 21.6826 32.9141Z" fill="#2CCCBF"/>
</g>
<defs>
<clipPath id="clip0_595_212">
<rect width="29.3333" height="36" fill="white" transform="translate(0.833496)"/>
</clipPath>
</defs>
</svg>
