<svg fill="none" height="20" viewBox="0 0 20 20" width="20" xmlns="http://www.w3.org/2000/svg"><path clip-rule="evenodd" d="m12.293 5.29279c.1875-.18747.4418-.29279.707-.29279s.5195.10532.707.29279l4 4c.1875.18752.2928.44183.2928.707 0 .26521-.1053.51951-.2928.70701l-4 4c-.1886.1821-.4412.2829-.7034.2807-.2622-.0023-.513-.1075-.6984-.2929s-.2906-.4362-.2929-.6984.0985-.5148.2807-.7034l2.293-2.293h-11.586c-.26522 0-.51957-.1054-.70711-.2929-.18753-.1875-.29289-.4419-.29289-.70711 0-.26522.10536-.51957.29289-.70711.18754-.18754.44189-.29289.70711-.29289h11.586l-2.293-2.293c-.1875-.18753-.2928-.44184-.2928-.707 0-.26517.1053-.51948.2928-.707z" fill="#56aeaa" fill-rule="evenodd"/></svg>