<svg fill="none" height="17" viewBox="0 0 16 17" width="16" xmlns="http://www.w3.org/2000/svg"><rect fill="#56aeaa" height="15" rx="3.5" stroke="#fefefe" width="15" x=".5" y="1.25195"/><path d="m5.69471 8.03267c-.1886-.18216-.4412-.28296-.7034-.28068s-.51301.10745-.69842.29286c-.1854.18541-.29057.43622-.29285.69841-.00228.2622.09851.5148.28067.70341l2 2.00003c.18753.1874.44184.2928.707.2928.26517 0 .51947-.1054.707-.2928l3.99999-4.00003c.1822-.18861.283-.44121.2807-.70341-.0023-.26219-.1075-.51301-.2929-.69841-.1854-.18541-.4362-.29058-.6984-.29286s-.5148.09852-.7034.28068l-3.29299 3.293z" fill="#fff"/></svg>