<?xml version="1.0" encoding="iso-8859-1"?>
<!-- Generator: Adobe Illustrator 18.0.0, SVG Export Plug-In . SVG Version: 6.00 Build 0)  -->
<!DOCTYPE svg PUBLIC "-//W3C//DTD SVG 1.1//EN" "http://www.w3.org/Graphics/SVG/1.1/DTD/svg11.dtd">
<svg version="1.1" id="Capa_1" xmlns="http://www.w3.org/2000/svg" xmlns:xlink="http://www.w3.org/1999/xlink" x="0px" y="0px"
	 viewBox="0 0 60.001 60.001" style="enable-background:new 0 0 60.001 60.001;" xml:space="preserve">
<g>
	<path d="M5.291,43.183c-0.259-0.489-0.864-0.677-1.352-0.414c-0.488,0.259-0.674,0.864-0.414,1.352
		c0.164,0.31,0.334,0.614,0.509,0.916c0.186,0.319,0.521,0.498,0.866,0.498c0.17,0,0.343-0.044,0.501-0.135
		c0.478-0.277,0.641-0.89,0.363-1.367C5.601,43.752,5.443,43.469,5.291,43.183z"/>
	<path d="M7.668,9.966c-0.233,0.26-0.461,0.523-0.686,0.791c-0.354,0.424-0.299,1.055,0.124,1.409
		c0.188,0.157,0.415,0.233,0.642,0.233c0.286,0,0.569-0.122,0.768-0.357c0.209-0.25,0.423-0.496,0.641-0.738
		c0.369-0.411,0.335-1.044-0.075-1.413C8.67,9.524,8.041,9.557,7.668,9.966z"/>
	<path d="M7.954,47.264c-0.341-0.436-0.97-0.512-1.403-0.171c-0.436,0.34-0.512,0.969-0.171,1.403
		c0.215,0.275,0.436,0.546,0.659,0.813c0.198,0.235,0.481,0.356,0.767,0.356c0.227,0,0.455-0.077,0.643-0.234
		c0.423-0.355,0.478-0.986,0.122-1.409C8.36,47.773,8.155,47.52,7.954,47.264z"/>
	<path d="M11.482,6.397c-0.273,0.215-0.543,0.435-0.81,0.658C10.25,7.41,10.195,8.041,10.55,8.464
		c0.198,0.235,0.481,0.356,0.767,0.356c0.227,0,0.455-0.077,0.643-0.234c0.249-0.21,0.503-0.416,0.759-0.617
		c0.434-0.341,0.51-0.97,0.168-1.404C12.546,6.132,11.918,6.054,11.482,6.397z"/>
	<path d="M11.288,50.828c-0.41-0.369-1.041-0.339-1.412,0.072c-0.37,0.41-0.338,1.042,0.072,1.412
		c0.259,0.234,0.523,0.464,0.791,0.688c0.188,0.157,0.415,0.233,0.642,0.233c0.286,0,0.569-0.122,0.768-0.357
		c0.354-0.424,0.299-1.055-0.124-1.409C11.774,51.259,11.529,51.045,11.288,50.828z"/>
	<path d="M20.448,56.328c-0.307-0.111-0.61-0.228-0.913-0.35c-0.512-0.208-1.095,0.039-1.302,0.552
		c-0.207,0.512,0.039,1.095,0.552,1.302c0.324,0.132,0.651,0.258,0.981,0.377c0.113,0.041,0.228,0.06,0.341,0.06
		c0.409,0,0.793-0.253,0.94-0.659C21.235,57.09,20.966,56.517,20.448,56.328z"/>
	<path d="M15.854,3.539c-0.307,0.164-0.61,0.334-0.911,0.508c-0.478,0.277-0.641,0.89-0.363,1.367
		c0.186,0.319,0.521,0.498,0.866,0.498c0.17,0,0.343-0.044,0.501-0.135c0.281-0.164,0.565-0.322,0.853-0.477
		c0.486-0.261,0.67-0.866,0.408-1.354C16.948,3.461,16.341,3.276,15.854,3.539z"/>
	<path d="M16.023,54.268c-0.283-0.163-0.563-0.331-0.839-0.504c-0.467-0.291-1.085-0.149-1.378,0.319
		c-0.292,0.468-0.149,1.085,0.319,1.378c0.296,0.185,0.595,0.364,0.897,0.539c0.158,0.091,0.329,0.134,0.499,0.134
		c0.346,0,0.682-0.18,0.867-0.5C16.666,55.155,16.501,54.543,16.023,54.268z"/>
	<path d="M20.658,1.483c-0.333,0.109-0.662,0.224-0.989,0.344c-0.519,0.19-0.784,0.765-0.594,1.283
		c0.148,0.404,0.531,0.655,0.938,0.655c0.114,0,0.231-0.02,0.345-0.062c0.306-0.112,0.613-0.219,0.923-0.32
		c0.525-0.172,0.811-0.737,0.639-1.262C21.747,1.597,21.184,1.311,20.658,1.483z"/>
	<path d="M3.696,39.619c-0.111-0.307-0.219-0.615-0.32-0.926c-0.173-0.525-0.736-0.81-1.262-0.639
		c-0.525,0.172-0.811,0.737-0.639,1.262c0.109,0.332,0.223,0.66,0.342,0.986c0.147,0.406,0.531,0.658,0.939,0.658
		c0.113,0,0.229-0.02,0.342-0.061C3.618,40.712,3.885,40.138,3.696,39.619z"/>
	<path d="M2.383,21.069c0.113,0.041,0.228,0.06,0.341,0.06c0.409,0,0.793-0.253,0.94-0.659c0.111-0.308,0.229-0.613,0.35-0.916
		c0.206-0.513-0.042-1.095-0.555-1.301c-0.511-0.205-1.096,0.042-1.301,0.555c-0.131,0.324-0.256,0.651-0.375,0.98
		C1.596,20.308,1.865,20.881,2.383,21.069z"/>
	<path d="M4.355,16.41c0.158,0.091,0.329,0.134,0.499,0.134c0.346,0,0.682-0.18,0.867-0.5c0.163-0.284,0.332-0.564,0.504-0.842
		c0.291-0.469,0.147-1.085-0.322-1.377c-0.469-0.29-1.085-0.148-1.377,0.322c-0.184,0.295-0.362,0.595-0.537,0.896
		C3.712,15.523,3.877,16.135,4.355,16.41z"/>
	<path d="M57.562,25.039c0.058,0.319,0.109,0.641,0.155,0.964c0.071,0.499,0.499,0.858,0.989,0.858c0.047,0,0.095-0.003,0.143-0.01
		c0.547-0.078,0.927-0.585,0.849-1.132c-0.05-0.347-0.105-0.691-0.167-1.034c-0.098-0.544-0.622-0.905-1.161-0.808
		C57.826,23.976,57.464,24.496,57.562,25.039z"/>
	<path d="M56.287,20.331c0.112,0.306,0.22,0.613,0.321,0.923c0.139,0.422,0.529,0.688,0.95,0.688c0.104,0,0.208-0.016,0.312-0.05
		c0.525-0.172,0.811-0.737,0.639-1.262c-0.109-0.333-0.225-0.662-0.345-0.989c-0.19-0.518-0.766-0.785-1.283-0.594
		C56.362,19.238,56.096,19.813,56.287,20.331z"/>
	<path d="M1.256,26.001c0.059,0.01,0.115,0.015,0.172,0.015c0.478,0,0.9-0.343,0.984-0.829c0.056-0.322,0.117-0.643,0.184-0.962
		c0.111-0.541-0.236-1.07-0.776-1.183c-0.541-0.108-1.071,0.235-1.183,0.776c-0.07,0.341-0.136,0.683-0.195,1.026
		C0.348,25.39,0.712,25.907,1.256,26.001z"/>
	<path d="M1.618,36.066c0.544-0.096,0.907-0.615,0.811-1.158c-0.057-0.32-0.107-0.643-0.153-0.967
		c-0.078-0.547-0.586-0.931-1.132-0.849c-0.547,0.078-0.927,0.585-0.849,1.132c0.05,0.346,0.104,0.689,0.165,1.031
		c0.086,0.485,0.507,0.826,0.983,0.826C1.501,36.082,1.559,36.077,1.618,36.066z"/>
	<path d="M2.001,30c0-0.311,0.005-0.62,0.015-0.929c0.019-0.552-0.413-1.014-0.966-1.032c-0.511-0.049-1.015,0.413-1.032,0.966
		C0.005,29.335,0.001,29.666,0.001,30v0.049c0,0.553,0.447,0.976,1,0.976S2.001,30.553,2.001,30z"/>
	<path d="M54.688,16.776c0.181,0.335,0.525,0.525,0.881,0.525c0.16,0,0.323-0.038,0.474-0.12c0.486-0.262,0.668-0.868,0.405-1.354
		c-0.165-0.307-0.334-0.609-0.508-0.909c-0.277-0.477-0.887-0.639-1.367-0.363c-0.478,0.277-0.641,0.89-0.363,1.367
		C54.374,16.204,54.533,16.489,54.688,16.776z"/>
	<path d="M49.221,6.965c-0.424-0.355-1.054-0.297-1.409,0.124c-0.354,0.424-0.299,1.055,0.124,1.409
		c0.251,0.21,0.497,0.423,0.741,0.642c0.19,0.171,0.429,0.255,0.667,0.255c0.274,0,0.548-0.112,0.745-0.333
		c0.368-0.411,0.333-1.044-0.078-1.412C49.751,7.417,49.488,7.189,49.221,6.965z"/>
	<path d="M53.588,11.462c-0.216-0.275-0.437-0.546-0.662-0.813c-0.354-0.422-0.987-0.478-1.409-0.118
		c-0.422,0.356-0.475,0.987-0.118,1.409c0.21,0.248,0.415,0.499,0.615,0.755c0.197,0.252,0.491,0.384,0.788,0.384
		c0.216,0,0.433-0.069,0.615-0.213C53.853,12.525,53.929,11.897,53.588,11.462z"/>
	<path d="M51.453,47.996c-0.208,0.249-0.422,0.494-0.64,0.734c-0.371,0.409-0.34,1.042,0.069,1.413
		c0.191,0.173,0.432,0.259,0.672,0.259c0.272,0,0.544-0.11,0.741-0.328c0.235-0.26,0.465-0.524,0.69-0.793
		c0.354-0.424,0.299-1.055-0.124-1.409C52.438,47.517,51.808,47.574,51.453,47.996z"/>
	<path d="M48.003,51.446c-0.249,0.21-0.502,0.414-0.758,0.615c-0.436,0.34-0.512,0.969-0.171,1.403
		c0.197,0.252,0.491,0.384,0.788,0.384c0.216,0,0.433-0.069,0.615-0.213c0.275-0.215,0.546-0.435,0.813-0.658
		c0.423-0.355,0.478-0.986,0.122-1.409C49.056,51.146,48.426,51.091,48.003,51.446z"/>
	<path d="M55.621,43.634c-0.48-0.275-1.09-0.112-1.366,0.366c-0.163,0.282-0.33,0.561-0.503,0.836
		c-0.294,0.468-0.153,1.085,0.314,1.379c0.166,0.104,0.35,0.153,0.531,0.153c0.333,0,0.658-0.166,0.848-0.468
		c0.187-0.297,0.367-0.597,0.542-0.9C56.263,44.522,56.098,43.909,55.621,43.634z"/>
	<path d="M58.739,34.048c-0.543-0.091-1.062,0.269-1.158,0.813c-0.057,0.322-0.119,0.644-0.186,0.963
		c-0.112,0.54,0.235,1.07,0.776,1.183c0.068,0.014,0.137,0.021,0.204,0.021c0.464,0,0.88-0.324,0.979-0.797
		c0.07-0.339,0.137-0.68,0.197-1.023C59.647,34.662,59.283,34.144,58.739,34.048z"/>
	<path d="M60,29.894c0-0.553-0.447-1-1-1s-1,0.447-1,1L58.001,30c0,0.327-0.006,0.652-0.017,0.977
		c-0.02,0.553,0.412,1.016,0.964,1.034c0.012,0.001,0.024,0.001,0.036,0.001c0.536,0,0.979-0.425,0.998-0.965
		c0.013-0.348,0.019-0.696,0.019-1.074L60,29.894z"/>
	<path d="M25.163,57.583c-0.321-0.056-0.641-0.117-0.958-0.184c-0.54-0.113-1.07,0.232-1.185,0.772s0.232,1.07,0.772,1.185
		c0.341,0.072,0.684,0.138,1.028,0.197c0.058,0.01,0.115,0.015,0.172,0.015c0.478,0,0.9-0.343,0.984-0.829
		C26.071,58.194,25.707,57.677,25.163,57.583z"/>
	<path d="M45.829,4.511c-0.295-0.184-0.595-0.362-0.896-0.537c-0.481-0.275-1.09-0.111-1.366,0.366
		c-0.276,0.479-0.111,1.091,0.366,1.366c0.284,0.163,0.564,0.332,0.842,0.504c0.164,0.102,0.347,0.15,0.526,0.15
		c0.334,0,0.661-0.167,0.851-0.473C46.442,5.419,46.298,4.803,45.829,4.511z"/>
	<path d="M57.603,38.978c-0.518-0.188-1.093,0.078-1.282,0.597c-0.112,0.308-0.229,0.612-0.352,0.915
		c-0.207,0.512,0.039,1.095,0.552,1.302c0.123,0.05,0.25,0.073,0.375,0.073c0.395,0,0.77-0.235,0.927-0.625
		c0.132-0.324,0.257-0.65,0.377-0.979C58.389,39.741,58.122,39.167,57.603,38.978z"/>
	<path d="M30.965,0.016c-0.319-0.011-0.65-0.019-1.003-0.015l-0.04,1v-1c-0.553,0-0.961,0.447-0.961,1
		C28.961,1.553,29.448,2,30.001,2c0.302,0,0.603,0.005,0.902,0.014c0.011,0.001,0.021,0.001,0.032,0.001
		c0.537,0,0.981-0.427,0.998-0.969C31.951,0.494,31.518,0.032,30.965,0.016z"/>
	<path d="M34.884,57.576c-0.319,0.057-0.641,0.107-0.964,0.152c-0.547,0.076-0.928,0.582-0.852,1.129
		c0.07,0.5,0.498,0.861,0.989,0.861c0.046,0,0.093-0.003,0.14-0.01c0.347-0.049,0.691-0.104,1.034-0.164
		c0.544-0.096,0.907-0.615,0.811-1.158C35.946,57.843,35.425,57.474,34.884,57.576z"/>
	<path d="M30.111,58.006L30.001,58c-0.319,0-0.638-0.006-0.953-0.016c-0.552-0.014-1.014,0.415-1.032,0.966
		c-0.019,0.553,0.414,1.015,0.966,1.032C29.313,59.994,29.646,60,29.98,60c0.017,0.001,0.032,0.001,0.045,0.001
		c0.553,0,1.043-0.445,1.043-0.997C31.068,58.451,30.664,58.006,30.111,58.006z"/>
	<path d="M25.748,0.299c-0.346,0.05-0.689,0.105-1.031,0.166c-0.544,0.096-0.907,0.615-0.811,1.158
		c0.086,0.485,0.507,0.826,0.983,0.826c0.058,0,0.116-0.005,0.175-0.016c0.32-0.057,0.643-0.108,0.967-0.154
		c0.547-0.078,0.927-0.585,0.849-1.132S26.294,0.219,25.748,0.299z"/>
	<path d="M36.151,0.631c-0.34-0.069-0.681-0.135-1.023-0.194c-0.551-0.092-1.062,0.271-1.156,0.814
		c-0.094,0.545,0.271,1.063,0.814,1.156c0.323,0.056,0.645,0.117,0.965,0.183c0.067,0.014,0.135,0.021,0.201,0.021
		c0.466,0,0.882-0.326,0.979-0.8C37.041,1.27,36.692,0.741,36.151,0.631z"/>
	<path d="M41.167,2.148c-0.324-0.131-0.651-0.255-0.98-0.374c-0.522-0.19-1.093,0.081-1.281,0.6c-0.188,0.52,0.081,1.093,0.6,1.281
		c0.308,0.111,0.613,0.228,0.916,0.349c0.122,0.049,0.249,0.072,0.373,0.072c0.396,0,0.771-0.237,0.928-0.627
		C41.927,2.936,41.679,2.354,41.167,2.148z"/>
	<path d="M39.596,56.314c-0.306,0.111-0.614,0.218-0.925,0.318c-0.525,0.171-0.813,0.735-0.642,1.261
		c0.138,0.422,0.529,0.69,0.951,0.69c0.103,0,0.206-0.016,0.31-0.049c0.332-0.108,0.662-0.223,0.989-0.342
		c0.52-0.188,0.787-0.763,0.598-1.281C40.689,56.393,40.113,56.124,39.596,56.314z"/>
	<path d="M44.011,54.248c-0.28,0.163-0.563,0.321-0.85,0.474c-0.488,0.259-0.674,0.864-0.414,1.352
		c0.18,0.339,0.525,0.531,0.884,0.531c0.158,0,0.318-0.037,0.468-0.117c0.31-0.164,0.614-0.334,0.916-0.509
		c0.478-0.277,0.641-0.89,0.363-1.367C45.102,54.135,44.491,53.975,44.011,54.248z"/>
</g>
<g>
</g>
<g>
</g>
<g>
</g>
<g>
</g>
<g>
</g>
<g>
</g>
<g>
</g>
<g>
</g>
<g>
</g>
<g>
</g>
<g>
</g>
<g>
</g>
<g>
</g>
<g>
</g>
<g>
</g>
</svg>
