<svg xmlns="http://www.w3.org/2000/svg" width="24" height="24" fill="none" viewBox="0 0 24 24">
    <path stroke="#18181B" stroke-linecap="round" stroke-linejoin="round" stroke-width="2" d="M13.675 4.317c-.426-1.756-2.924-1.756-3.35 0-.276 1.135-1.576 1.673-2.572 1.065-1.544-.94-3.31.827-2.37 2.37.141.232.226.494.247.764.02.27-.022.543-.126.793-.104.251-.266.474-.472.65-.206.177-.451.302-.715.366-1.756.426-1.756 2.924 0 3.35.264.064.508.19.714.366.206.176.368.399.471.65.104.25.147.522.126.792-.02.27-.105.532-.246.764-.94 1.544.827 3.31 2.37 2.37.232-.141.494-.226.764-.247.27-.02.543.022.793.126.251.104.474.266.65.472.177.206.302.451.366.715.426 1.756 2.924 1.756 3.35 0 .064-.264.19-.508.366-.714.176-.206.399-.368.65-.472.25-.103.522-.146.792-.125.27.02.532.105.764.246 1.544.94 3.31-.827 2.37-2.37-.141-.232-.226-.494-.247-.764-.02-.27.022-.543.126-.793.104-.251.266-.474.472-.65.206-.177.451-.302.715-.366 1.756-.426 1.756-2.924 0-3.35-.264-.064-.508-.19-.714-.366-.206-.176-.368-.399-.472-.65-.103-.25-.146-.522-.125-.792.02-.27.105-.532.246-.764.94-1.544-.827-3.31-2.37-2.37-.232.141-.494.226-.764.247-.27.02-.543-.022-.793-.126-.251-.104-.474-.266-.65-.472-.177-.206-.302-.451-.366-.715z"/>
    <path stroke="#18181B" stroke-linecap="round" stroke-linejoin="round" stroke-width="2" d="M14.121 14.121C14.684 13.56 15 12.796 15 12s-.316-1.559-.879-2.121C13.56 9.316 12.796 9 12 9s-1.559.316-2.121.879C9.316 10.44 9 11.204 9 12s.316 1.559.879 2.121c.562.563 1.325.879 2.121.879s1.559-.316 2.121-.879z"/>
</svg>
