<svg fill="none" height="65" viewBox="0 0 65 65" width="65" xmlns="http://www.w3.org/2000/svg"><path clip-rule="evenodd" d="m32.61 25.6148 22.5769-22.57677c2.7831-2.783134 6.6047-3.473937 8.5357-1.54296 1.931 1.93098 1.2402 5.75251-1.543 8.53563l-22.5768 22.5768 22.5773 22.5772c2.7831 2.7831 3.4739 6.6046 1.543 8.5356-1.931 1.931-5.7526 1.2402-8.5357-1.5429l-22.5774-22.5773-22.5773 22.5773c-2.78313 2.7831-6.60469 3.4739-8.53567 1.5429-1.930988-1.931-1.24018-5.7525 1.54296-8.5356l22.57731-22.5772-22.57683-22.5768c-2.78314-2.78312-3.473946-6.60465-1.54296-8.53563 1.93099-1.930977 5.75254-1.240174 8.53569 1.54296z" fill="#ef4444" fill-rule="evenodd"/></svg>