<svg xmlns="http://www.w3.org/2000/svg" width="24" height="24" fill="none" viewBox="0 0 24 24">
    <path stroke="#18181B" stroke-linecap="round" stroke-linejoin="round" stroke-width="2" d="M13 16h-1v-4h-1m1-4h.01M21 12c0 1.182-.233 2.352-.685 3.444-.452 1.092-1.115 2.084-1.951 2.92-.836.836-1.828 1.499-2.92 1.95-1.092.453-2.262.686-3.444.686s-2.352-.233-3.444-.685c-1.092-.452-2.084-1.115-2.92-1.951-.836-.836-1.499-1.828-1.95-2.92C3.232 14.352 3 13.182 3 12c0-2.387.948-4.676 2.636-6.364C7.324 3.948 9.613 3 12 3s4.676.948 6.364 2.636C20.052 7.324 21 9.613 21 12z"/>
</svg>
