<svg fill="none" height="50" viewBox="0 0 50 50" width="50" xmlns="http://www.w3.org/2000/svg"><path d="m24.9993 31.125v4.0833m-12.25 8.1667h24.5c1.083 0 2.1216-.4302 2.8874-1.196s1.196-1.8044 1.196-2.8873v-12.25c0-1.083-.4302-2.1216-1.196-2.8874s-1.8044-1.196-2.8874-1.196h-24.5c-1.0829 0-2.1215.4302-2.8873 1.196-.76578.7658-1.19598 1.8044-1.19598 2.8874v12.25c0 1.0829.4302 2.1215 1.19598 2.8873.7658.7658 1.8044 1.196 2.8873 1.196zm20.4167-20.4167v-8.1666c0-2.166-.8604-4.2432-2.3919-5.77474-1.5316-1.53155-3.6088-2.39196-5.7748-2.39196-2.1659 0-4.2431.86041-5.7747 2.39196-1.5315 1.53154-2.3919 3.60874-2.3919 5.77474v8.1666z" stroke="#fefefe" stroke-linecap="round" stroke-linejoin="round" stroke-width="2"/></svg>