<svg xmlns="http://www.w3.org/2000/svg" width="24" height="24" fill="none" viewBox="0 0 24 24">
    <path fill="#18181B" fill-rule="evenodd" d="M3.6 3.6c-.318 0-.624.126-.849.351-.225.225-.351.53-.351.849v14.4c0 .318.126.623.351.848.225.225.53.352.849.352.318 0 .623-.127.848-.352.225-.225.352-.53.352-.848V4.8c0-.319-.127-.624-.352-.849-.225-.225-.53-.351-.848-.351zM15.95 14.75c-.218.226-.339.53-.336.844.002.315.129.616.351.838.223.223.524.35.838.352.315.003.618-.118.844-.337l3.6-3.6c.225-.225.352-.53.352-.848 0-.319-.127-.624-.352-.849l-3.6-3.6c-.11-.114-.243-.206-.39-.269-.146-.063-.303-.096-.462-.097-.16-.001-.318.029-.465.09-.148.06-.282.149-.394.261-.113.113-.202.247-.262.394-.06.148-.091.306-.09.465.002.16.035.317.098.463.063.147.154.28.268.39l1.552 1.552H8.4c-.318 0-.624.126-.849.351-.225.225-.351.53-.351.849 0 .318.126.623.351.848.225.225.53.352.849.352h9.103l-1.552 1.551z" clip-rule="evenodd"/>
</svg>
