<svg clip-rule="evenodd" fill-rule="evenodd" stroke-linejoin="round" stroke-miterlimit="2" viewBox="0 0 446 430" xmlns="http://www.w3.org/2000/svg" xmlns:xlink="http://www.w3.org/1999/xlink"><linearGradient id="a" gradientTransform="matrix(-484.495 227.751 -227.751 -484.495 441.766 113.766)" gradientUnits="userSpaceOnUse" x1="0" x2="1" y1="0" y2="0"><stop offset="0" stop-color="#83d7bc"/><stop offset="1" stop-color="#37ab86"/></linearGradient><path d="m325.772 170.948c-7.875 3.447-17.733 7.966-21.653 10.618-6.967 4.712-26.951 14.666-40.555 20.83 0 0-17.683 6.412-25.838 9.398-8.156 2.987-27.43 8.62-34.824 10.205s-14.374 2.723-19.463 2.154c-5.089-.57-13.145 1.22-17.606-5.694 5.856-.533 2.986.325 9.943-2.324s8.436-3.986 16.944-8.193c8.507-4.206 14.991-8.758 20.691-12.481 5.7-3.722 9.482-7.081 13.799-10.551 4.318-3.47 8.379-6.938 9.037-9.471-4.432.313-3.422-1.106-6.949 1.1-3.528 2.206-4.091 3.087-11.192 3.344-7.1.257-9.955-1.142-16.563-1.086-6.608.055-9.127.112-14.163 1.46s-6.004.904-10.41 3.07c3.883-6.438 3.384-6.912 8.038-10.767s13.681-9.7 19.69-13.166c6.01-3.465 10.075-6.373 16.732-9.064 6.657-2.692 9.164-4.644 14.309-6.289 5.146-1.646 13.721-6.447 16.237-8.822-4.297-.549-2.609-.621-5.693-.129-3.083.492-11.004.051-17.639-.705s-9.375-1.692-17.09-3.442-6.029-3.193-12.993-2.649-12.571-.483-19.746-.689c0 0 3.941-5.162 9.795-7.208 5.854-2.047 11.615-3.166 17.861-3.741 6.245-.575 12.189-1.486 17.728-1.988 5.54-.502 12.15-2.818 17.265-4.855 5.116-2.038 9.241-4.544 12.815-7.644 3.574-3.099 8.443-7.601 9.212-9.317s.286-3.507-2.905-2.367c-3.19 1.141-5.184 1.997-9.512 3.708-4.328 1.712-6.986 1.626-10.964 1.296s-5.866-.617-10.515-1.635c-4.65-1.018-4.835-1.634-6.704-3.76 5.424-.731 5.036-.573 10.894-2.536s10.593-4.178 15.95-8.424 14.611-12.333 19.361-16.94c4.75-4.608 13.266-17.47 17.391-23.269 4.126-5.799 9.3-10.285 14.058-15.766 4.759-5.481 11.72-10.61 18.895-14.496s15.667-7.409 20.644-7.817c4.977-.407 10.598-.756 14.24.314 3.643 1.07 9.224 1.43 15.196 4.924s5.002 1.075 10.139 6.703c3.623 3.969 4.832 5.117 6.313 7.654l.003.006c.618 1.059 1.284 2.36 2.192 4.208l-.082.022c2.369 5.015 5.556 12.263 6.357 14.236 1.092 2.693 1.557 4.706 1.529 8.372-.028 3.667-.389 4.131-.469 9.121 2.298 2.815 5.541 5.795 7.454 7.901 1.913 2.107 4.177 4.111 4.64 5.192s1.738 3.174-.644 4.946c-2.382 1.773-.984.4-2.394 2.483-.886 1.309-.621 2.687.361 4.619.982 1.933 1.849 2.881 2.677 4.285.828 1.405.458 1.609-.632 2.548-1.312 1.129-2.527 1.05-1.923 2.582.92 2.335 2.664 2.078 2.922 3.27.258 1.193-.323 1.171-2.254 2.561-1.93 1.389-1.426 2.295-.81 4.421.616 2.127 1.383 3.178 1.159 5.955-.225 2.777-.96 3.54-3.848 5.206-2.889 1.666-4.942.967-7.49 1.526-2.299.504-3.911.751-5.128 2.865-2.153 3.739-1.365 4.873-1.425 8.439-.06 3.535.542 16.468.552 16.69.298 2.403.653 4.878 1.232 7.559 1.307 6.04 4.119 9.939 6.318 14.496s6.581 9.992 9.521 14.576 9.263 12.547 11.886 16.124c2.623 3.576 8.127 9.529 10.736 12.177 0 0 4.607 3.973 6.285 5.822s6.26 4.436 6.887 6.217c.704 1.997-.804 7.037-1.546 9.109s-.832 2.212-4.706 8.719c-3.313 5.566-7.028 6.98-8.699 8.49-1.67 1.51-6.128 1.848-8.241 3.754-1.152 6.694-1.21 7.717-2.227 12.98s-2.998 12.051-4.003 15.71c-1.004 3.659-4.953 15.476-6.691 19.758s-6.127 14.786-7.395 17.644c-1.268 2.859-9.462 16.49-11.267 19.478-1.804 2.988-11.27 17.08-14.154 20.331s-13.065 14.585-15.073 16.53c-1.588 1.54-13.964 11.605-20.842 16.813l.075.365s-1.621 1.008-4.057 2.488l-.013.008c-5.284 3.211-14.382 8.635-19.058 10.818-6.837 3.19-22.477 11.025-31.855 13.858-9.377 2.834-26.276 6.895-38.325 8.639s-21.625 2.607-30.047 2.308c-8.421-.299-18.051-.123-26.105-.954-8.055-.831-28.676-5.413-34.097-7.114-5.422-1.701-21.335-6.317-29.895-10.267-8.56-3.951-24.387-12.97-31.573-17.657-7.187-4.687-19.635-13.816-31.866-25.729-12.23-11.914-14.87-15.234-22.158-26.831s-14.376-19.972-23.904-43.211c-9.528-23.238-8.547-33.636-11.022-46.501-2.474-12.866-1.305-22.914-1.754-36.62-.45-13.707 3.957-34.071 3.957-34.071 2.017-10.534 5.86-18.443 7.385-27.023 1.526-8.58 2.614-16.812 5.955-27.653 3.341-10.842 6.613-15.08 11.095-26.727 4.481-11.647 18.276-28.545 24.64-37.951 6.364-9.405 17.386-18.465 22.5-22.466 4.306-3.37 20.808-14.22 22.608-15.814 4.592-2.075 17.861-8.193 24.771-9.991 9.5-2.473 11.534-2.006 22.407-4.525-5.456 7.58-8.498 15.395-11.257 22.577s-2.421 10.817-4.269 19.555c-1.849 8.738-2.479 13.664-7.329 22.281-4.851 8.618-8.878 15.636-17.365 23.312-8.487 7.675-12.726 11.017-21.002 16.342s-11.866 8.521-19.218 13.38c4.864-2.377 18.408-4.775 25.429-5.318s16.672-.506 21.321-.238c4.649.269 11.498.708 21.075 5.288 9.577 4.579 12.401 5.632 19.623 11.333 7.223 5.701 13.713 8.215 21.257 11.908 7.545 3.693 6.802 1.885 15.226 2.262-4.067 4.888-16.908 12.887-25.166 16.947s-15.681 6.293-22.985 8.882c-7.303 2.588-16.215 3.329-22.801 3.001-6.585-.328-20.06-.844-28.921-3.437s-17.016-5.836-22.305-8.428c-5.288-2.592-7.915-2.457-15.335-2.055-7.419.403-9.738 2.736-15.518 10.998-5.78 8.263-5.877 17.585-5.046 28.245.83 10.659 2.216 17.304 6.71 33.402s5.664 16.737 12.888 32.343c7.223 15.606 15.804 23.822 25.607 35.45 9.803 11.629 27.3 19.862 34.89 24.456 7.59 4.593 20.291 7.18 31.064 8.812 10.774 1.631 30.267 2.791 30.267 2.791 7.732-.288 17.238-3.25 22.346-4.757s11.897-6.62 17.038-10.328c5.14-3.707 17.398-13.498 21.678-16.161 4.279-2.662 14.376-7.15 19.121-8.926 4.744-1.776 19.447-3.533 25.06-3.812 5.613-.278 13.325.664 20.021.826 6.697.162 18.599-3.234 18.599-3.234l.266-.103c5.501-2.1 5.996-.5 12.543-6.54 6.651-6.136 8.653-6.788 12.168-14.019s4.387-8.309 6.241-18.892c1.855-10.583.936-12.088 1.222-21.608 0 0-.368-5.247-.464-11.749-.095-6.502-.09-9.148-.828-12.838-.084-.422-.343-1.171-.74-2.178-2.64-3.125-3.291-3.568-6.729-2.935-3.439.633-15.141 8.625-19.801 11.448-4.661 2.822-26.051 15.385-31.509 18.261-5.457 2.876-25.798 12.541-30.654 14.44-4.855 1.899-24.006 8.926-30.74 11.496-6.735 2.569-26.029 9.914-32.284 12.821s-15.809 6.159-20.532 8.537-8.283 4.104-14.288 6.974c-6.006 2.871-5.912 1.946-10.003 3.297 0 0-5.753 1.432-8.674 1.797-2.922.365-8.304 1.253-10.198.966-1.893-.287-6.559.103-7.636-1.16-1.078-1.263-2.265-.955-.949-2.503s2.696-2.077 4.851-2.28c2.155-.202 4.197-.772 6.343-1.872s2.671-2.758 2.4-4.556-.61-2.152-2.756-2.867c-2.145-.714-3.949-1.249-6.218-1.617-2.27-.367-7.404-.452-10.198-.276-2.794.175-6.767.565-9.226 1.319-2.458.754-5.846 1.441-7.77 2.482s-6.83 2.874-8.704 3.188c-1.875.314-5.125-.669-4.005-2.986 1.119-2.316 1.979-3.925 5.217-5.62 3.237-1.695 6.624-3.743 9.805-5.047 3.182-1.304 8.562-2.825 11.3-3.377 2.738-.551 6.645-.786 9.555-.193 2.911.593 8.713 1.759 11.418 2.877 2.704 1.118 6.497 2.297 9.832 3.554 3.334 1.257 5.265 1.293 8.105 1.381 2.839.087 7.368-.931 10.391-1.914 3.024-.983 10.665-5.026 13.889-6.686 3.224-1.659 20.961-13.646 24.976-15.68s15.571-10.273 18.736-12.211c3.166-1.938 15.91-9.532 19.225-11.601 3.314-2.068 14.01-8.198 18.744-10.78 4.734-2.583 12.541-7.705 16.648-10.411 4.106-2.706 10.794-6.642 15.404-9.284 4.609-2.642 12.699-7.28 16.057-9.479s5.123-3.037 8.844-6.229c3.494-2.996 5.932-5.522 9.391-7.657zm-226.546-150.871c-1.721.778-2.223.988-.715.19.874-.463 1.053-.489.715-.19z" fill="url(#a)"/></svg>