<svg xmlns="http://www.w3.org/2000/svg" width="32" height="31" fill="none" viewBox="0 0 32 31">
    <g fill="#000" fill-rule="evenodd" clip-path="url(#clip0)" clip-rule="evenodd">
        <path d="M27.978 10.28s-.044-.94-.04-1.196c.004-.255-.052-.336.102-.604.087-.151.203-.169.367-.205.183-.04.33.01.536-.11.207-.118.26-.173.276-.372.016-.199-.04-.274-.083-.426-.044-.152-.08-.217.058-.317s.18-.098.161-.183c-.018-.085-.143-.067-.209-.234-.043-.11.044-.104.138-.185.078-.067.104-.082.045-.182-.06-.1-.122-.169-.192-.307-.07-.138-.09-.237-.026-.33.101-.15.001-.051.172-.178.17-.127.079-.277.046-.354-.033-.078-.195-.221-.332-.372-.137-.15-.37-.364-.534-.566.006-.357.032-.39.034-.652.002-.263-.032-.407-.11-.6s-.475-1.09-.606-1.322c-.131-.233-3.519 1.912-3.519 1.912l-1.288 2.724.274 2.72 1.965.963 1.923.452.842-.077zM25.284 15.388s-.075-.355-.264-.579c-.19-.224-.236-.255-.482-.21-.246.045-1.084.617-1.418.82-.333.201-1.864 1.1-2.255 1.307-.39.206-1.847.897-2.194 1.033-.348.136-1.719.64-2.2.823-.483.184-1.864.71-2.312.918-.447.208-1.131.44-1.47.611-.338.17-.592.294-1.022.5-.43.205-.423.139-.716.235 0 0-.412.103-.621.129-.21.026-.595.09-.73.069-.136-.02-.47.007-.547-.083-.077-.09-.162-.068-.068-.18.095-.11.193-.148.348-.162.154-.015.3-.056.454-.134.153-.08.19-.198.171-.327-.019-.128-.043-.154-.197-.205-.153-.05-.282-.09-.445-.116-.162-.026-.53-.032-.73-.02-.2.013-.484.041-.66.095-.176.054-.419.103-.556.178-.138.074-.49.206-.624.228-.134.022-.366-.048-.286-.214.08-.165.141-.28.373-.402.232-.121.474-.268.702-.361.228-.094.613-.203.809-.242.196-.04.476-.056.684-.014.208.043.624.126.817.206.194.08.465.165.704.255.239.09.377.092.58.098.203.007.527-.066.744-.137.216-.07.763-.36.994-.478.231-.12 1.5-.977 1.788-1.123.287-.145 1.115-.735 1.341-.874.227-.139 1.14-.682 1.376-.83.238-.148 1.003-.587 1.342-.772.339-.185.898-.551 1.192-.745.294-.194.772-.476 1.102-.665.33-.189.91-.52 1.15-.678.24-.158.366-.218.633-.446.266-.229.447-.419.721-.578.275-.159.742-.307.742-.307l1.29 3.285-.26.092z"/>
        <path d="M7.21 1.57c.395-.21-1.202.832-1.568 1.119-.366.286-1.155.935-1.61 1.608-.456.673-1.444 1.883-1.764 2.716-.321.834-.555 1.137-.795 1.914-.239.776-.317 1.365-.426 1.979-.11.614-.384 1.18-.529 1.934 0 0-.315 1.458-.283 2.44.032.98-.051 1.7.126 2.62.177.922.107 1.666.789 3.33.682 1.663 1.19 2.262 1.71 3.092.523.83.712 1.068 1.587 1.92.875.854 1.767 1.507 2.281 1.843.514.335 1.647.98 2.26 1.264.613.282 1.752.613 2.14.735.388.121 1.864.45 2.44.509.577.06 1.267.047 1.87.068.602.021 1.288-.04 2.15-.165.863-.125 2.072-.416 2.743-.619.672-.202 1.791-.763 2.28-.992.49-.228 1.656-.953 1.656-.953l-1.41-6.82s-.852.243-1.332.23c-.48-.01-1.031-.078-1.433-.058-.402.02-1.454.146-1.794.273-.34.127-1.062.448-1.368.639-.307.19-1.184.891-1.552 1.156-.368.266-.854.632-1.22.74-.365.108-1.046.32-1.6.34 0 0-1.395-.083-2.166-.2-.771-.116-1.68-.302-2.224-.63-.543-.33-1.795-.919-2.497-1.75-.702-.833-1.316-1.421-1.833-2.538-.517-1.118-.6-1.163-.923-2.316-.321-1.152-.42-1.628-.48-2.39-.06-.764-.052-1.431.361-2.022.414-.592.58-.759 1.111-.788.531-.028.72-.038 1.098.147.378.186.962.418 1.596.604.635.185 1.6.222 2.07.246.472.023 1.11-.03 1.633-.215.523-.185 1.054-.345 1.645-.636.591-.29 1.51-.863 1.802-1.213-.603-.027-.55.103-1.09-.162-.54-.264-1.005-.444-1.522-.852-.517-.408-.72-.484-1.405-.812-.685-.327-1.175-.359-1.508-.378-.333-.02-1.024-.022-1.526.017-.503.039-1.473.21-1.82.38.526-.347.783-.576 1.375-.957s.896-.62 1.503-1.17c.608-.55.896-1.052 1.243-1.669.348-.617.393-.97.525-1.595s.108-.885.305-1.4c.198-.513.416-1.073.806-1.615-.778.18-.924.146-1.604.323-.68.177-2.22.939-1.824.73z"/>
        <path d="M21.923 21.293s.518-.04.93-.201c.411-.162.44-.037.916-.476.477-.44.62-.486.872-1.003.251-.518.313-.595.446-1.353.133-.757.067-.865.088-1.547 0 0-.027-.375-.034-.84-.006-.466-.006-.655-.059-.92-.053-.263-1.056-2.311-1.29-2.785-.235-.474-.674-3.06-.674-3.06l1.225-1.748s1.723-.314 2.126-.085c.403.23.558.64.747.99.188.352.61.959.678 1.35.068.393.08.75.173 1.183.093.432.295.711.452 1.037.158.327.471.716.682 1.044.21.328.663.898.85 1.154.188.256.582.682.769.872 0 0 .33.284.45.417.12.132.448.317.493.445.05.142-.058.503-.11.652-.054.148-.06.158-.338.624-.237.398-.503.5-.622.607-.12.109-.44.133-.59.27-.083.478-.087.552-.16.928-.073.377-.214.863-.286 1.125-.072.262-.355 1.108-.48 1.414-.124.307-.438 1.059-.529 1.263-.09.205-.677 1.18-.806 1.394-.13.214-.807 1.223-1.013 1.456-.207.233-.935 1.044-1.08 1.183-.143.14-1.52 1.253-1.777 1.408-.258.155-2.05-6.798-2.05-6.798z"/>
        <path d="M24.275 12.014s-1.842.76-2.34 1.097c-.5.337-1.93 1.05-2.904 1.491l-1.85.673c-.583.214-1.963.617-2.492.73-.53.114-1.029.195-1.393.155-.364-.041-.941.087-1.26-.408.419-.038.213.023.711-.166.498-.19.604-.286 1.213-.587.61-.3 1.073-.627 1.481-.893.408-.267.679-.507.988-.755.31-.249.6-.497.647-.678-.317.022-.245-.08-.497.078-.253.158-.293.221-.802.24-.508.018-.712-.082-1.185-.078-.473.004-.654.008-1.014.104-.36.097-.43.065-.745.22.278-.46.242-.495.575-.77.333-.276.98-.695 1.41-.943.43-.248.72-.456 1.197-.649.477-.192.656-.332 1.025-.45.368-.118.982-.461 1.162-.631-.308-.04-.187-.045-.408-.01-.22.036-.787.004-1.262-.05-.475-.054-.671-.121-1.224-.246-.552-.126-.431-.229-.93-.19-.498.039-.9-.035-1.413-.05 0 0 .282-.369.701-.515.42-.147.832-.227 1.279-.268.447-.041.872-.107 1.269-.142.396-.036.87-.202 1.236-.348.366-.146.66-.325.917-.547.256-.222.604-.544.66-.667.054-.123.02-.251-.209-.17-.228.082-.37.143-.68.266-.31.122-.5.116-.786.093-.284-.024-.42-.045-.752-.117-.333-.073-.346-.117-.48-.27.388-.052.36-.04.78-.181.42-.14.758-.3 1.142-.603.383-.304 1.045-.883 1.385-1.213.34-.33.95-1.25 1.245-1.665.296-.415.666-.737 1.007-1.129.34-.392.838-.76 1.352-1.038.514-.278 1.122-.53 1.478-.56.356-.028.758-.053 1.02.023.26.077.66.103 1.087.353.427.25.358.077.726.48.367.402.388.4.609.85 0 0-1.545.4-2.385 1.25-.84.853-1.736 2.023-1.963 3.096-.227 1.073.672 5.788.672 5.788z"/>
    </g>
    <defs>
        <clipPath id="clip0">
            <path fill="#fff" d="M0 0H32V30.779H0z"/>
        </clipPath>
    </defs>
</svg>
