<svg fill="none" height="24" viewBox="0 0 25 24" width="25" xmlns="http://www.w3.org/2000/svg"><path d="m21.8984 21-6-6m2-5c0 .9193-.181 1.8295-.5328 2.6788s-.8674 1.6209-1.5174 2.2709c-.65.6501-1.4217 1.1657-2.271 1.5175-.8493.3517-1.7595.5328-2.6788.5328-.91922 0-1.82947-.1811-2.67875-.5328-.84928-.3518-1.62095-.8674-2.27096-1.5175-.65001-.65-1.16563-1.4216-1.51741-2.2709s-.53284-1.7595-.53284-2.6788c0-1.85652.7375-3.63699 2.05025-4.94975 1.31275-1.31275 3.09323-2.05025 4.94971-2.05025 1.8566 0 3.637.7375 4.9498 2.05025 1.3127 1.31276 2.0502 3.09323 2.0502 4.94975z" stroke="#a1a1aa" stroke-linecap="round" stroke-linejoin="round" stroke-width="2"/></svg>