<svg width="24" height="25" viewBox="0 0 24 25" fill="none" xmlns="http://www.w3.org/2000/svg">
<path d="M12 5.5V5.51M12 12.5V12.51M12 19.5V19.51M12 6.5C11.7348 6.5 11.4804 6.39464 11.2929 6.20711C11.1054 6.01957 11 5.76522 11 5.5C11 5.23478 11.1054 4.98043 11.2929 4.79289C11.4804 4.60536 11.7348 4.5 12 4.5C12.2652 4.5 12.5196 4.60536 12.7071 4.79289C12.8946 4.98043 13 5.23478 13 5.5C13 5.76522 12.8946 6.01957 12.7071 6.20711C12.5196 6.39464 12.2652 6.5 12 6.5ZM12 13.5C11.7348 13.5 11.4804 13.3946 11.2929 13.2071C11.1054 13.0196 11 12.7652 11 12.5C11 12.2348 11.1054 11.9804 11.2929 11.7929C11.4804 11.6054 11.7348 11.5 12 11.5C12.2652 11.5 12.5196 11.6054 12.7071 11.7929C12.8946 11.9804 13 12.2348 13 12.5C13 12.7652 12.8946 13.0196 12.7071 13.2071C12.5196 13.3946 12.2652 13.5 12 13.5ZM12 20.5C11.7348 20.5 11.4804 20.3946 11.2929 20.2071C11.1054 20.0196 11 19.7652 11 19.5C11 19.2348 11.1054 18.9804 11.2929 18.7929C11.4804 18.6054 11.7348 18.5 12 18.5C12.2652 18.5 12.5196 18.6054 12.7071 18.7929C12.8946 18.9804 13 19.2348 13 19.5C13 19.7652 12.8946 20.0196 12.7071 20.2071C12.5196 20.3946 12.2652 20.5 12 20.5Z" stroke="#3F3F46" stroke-width="2" stroke-linecap="round" stroke-linejoin="round"/>
</svg>
